# xmcd
#
# Track frame offsets:
#	150
#	12729
#	25708
#	37610
#	51204
#	64945
#	78537
#	90705
#	103839
#	116489
#	129770
#	142159
#	155252
#	166491
#	178612
#	191394
#	203660
#	216371
#	229795
#	243097
#	256585
#	268645
#	281211
#	293771
#	306948
#	321385
#	334147
#	348492
#
# Disc length: 4823 seconds
#
# Revision: 0
# Processed by: cddbd v1.5.2PL0 Copyright (c) Steve Scherf et al.
# Submitted via: EZCDAudioConverter 4.0.5.1
#
DISCID=9712d51c
DTITLE=Elmore James - The Best of Elmore James: The Early Years
DYEAR=1995
DGENRE=Blues
TTITLE0=Dust My Broom
TTITLE1=I Held My Baby Last Night
TTITLE2=Baby What's Wrong
TTITLE3=I Believe
TTITLE4=Sinful Woman
TTITLE5=Early in the Morning
TTITLE6=Hawaiian Boogie
TTITLE7=Can't Stop Lovin'
TTITLE8=Make a Little Love
TTITLE9=Strange Kinda Feeling
TTITLE10=Please Find My Baby
TTITLE11=Hand in Hand
TTITLE12=Make My Dreams Come True
TTITLE13=Sho' Nuff I Do
TTITLE14=Dark and Dreary
TTITLE15=Rock My Baby Right
TTITLE16=Sunny Land
TTITLE17=Standing at the Crossroads
TTITLE18=Late Hours at Midnight
TTITLE19=The Way You Treat Me (Aka Mean and Evil)
TTITLE20=Happy Home
TTITLE21=No Love in My Heart (For You)
TTITLE22=Dust My Blues
TTITLE23=I Was a Fool
TTITLE24=Blues Before Sunrise
TTITLE25=Goodbye Baby
TTITLE26=Wild About You
TTITLE27=Long Tall Woman
EXTD=
EXTT0=
EXTT1=
EXTT2=
EXTT3=
EXTT4=
EXTT5=
EXTT6=
EXTT7=
EXTT8=
EXTT9=
EXTT10=
EXTT11=
EXTT12=
EXTT13=
EXTT14=
EXTT15=
EXTT16=
EXTT17=
EXTT18=
EXTT19=
EXTT20=
EXTT21=
EXTT22=
EXTT23=
EXTT24=
EXTT25=
EXTT26=
EXTT27=
PLAYORDER=
